<svg width="1909" height="533" viewBox="0 0 1909 533" fill="none" xmlns="http://www.w3.org/2000/svg">
<g clip-path="url(#clip0_35_2)">
<path fill-rule="evenodd" clip-rule="evenodd" d="M765 18H853V72H765V18ZM747 0H765H853H871V18V72V90H853H765H747V72V18V0ZM1295 143C1295 167.301 1275.3 187 1251 187C1226.7 187 1207 167.301 1207 143C1207 118.699 1226.7 99 1251 99C1275.3 99 1295 118.699 1295 143ZM1268.79 143C1268.79 152.824 1260.82 160.787 1251 160.787C1241.18 160.787 1233.21 152.824 1233.21 143C1233.21 133.176 1241.18 125.213 1251 125.213C1260.82 125.213 1268.79 133.176 1268.79 143ZM1221 283.5C1221 373.799 1147.8 447 1057.5 447C967.201 447 894 373.799 894 283.5C894 193.201 967.201 120 1057.5 120C1147.8 120 1221 193.201 1221 283.5ZM1197 283.5C1197 360.544 1134.54 423 1057.5 423C980.456 423 918 360.544 918 283.5C918 206.456 980.456 144 1057.5 144C1134.54 144 1197 206.456 1197 283.5ZM83.5 307C129.616 307 167 269.616 167 223.5C167 177.384 129.616 140 83.5 140C37.5511 140 0.270521 177.114 0.00146556 223H0V223.5V406H6H31H37V292.865C50.2901 301.792 66.2868 307 83.5 307ZM83.5 276C54.505 276 31 252.495 31 223.5C31 194.505 54.505 171 83.5 171C112.495 171 136 194.505 136 223.5C136 252.495 112.495 276 83.5 276ZM542 396C607.722 396 661 342.722 661 277C661 211.278 607.722 158 542 158C476.278 158 423 211.278 423 277C423 342.722 476.278 396 542 396ZM541.5 363C588.72 363 627 324.72 627 277.5C627 230.28 588.72 192 541.5 192C494.28 192 456 230.28 456 277.5C456 324.72 494.28 363 541.5 363ZM1057.5 397C1119.63 397 1170 346.632 1170 284.5C1170 222.368 1119.63 172 1057.5 172C995.368 172 945 222.368 945 284.5C945 346.632 995.368 397 1057.5 397ZM1058 374C1107.71 374 1148 333.706 1148 284C1148 234.294 1107.71 194 1058 194C1008.29 194 968 234.294 968 284C968 333.706 1008.29 374 1058 374ZM201 154H239V259H356V154H394V406H356V297H239V406H201V154ZM894 154V189H809V406H774V189H690V154H894ZM712 57.5C674.169 57.5 643.5 88.1685 643.5 126V160H616.5V126C616.5 73.2568 659.257 30.5 712 30.5H732.5V57.5H712ZM1266 57.5H884.5V30.5H1266C1318.74 30.5 1361.5 73.2568 1361.5 126V193H1334.5V126C1334.5 88.1685 1303.83 57.5 1266 57.5ZM1334.5 437V322.5H1361.5V437C1361.5 489.743 1318.74 532.5 1266 532.5H712C659.257 532.5 616.5 489.743 616.5 437V391.5H643.5V437C643.5 474.832 674.169 505.5 712 505.5H1266C1303.83 505.5 1334.5 474.832 1334.5 437ZM1443 138H1406V421H1443V421.5H1517.5C1533.45 421.5 1554.59 415.479 1567 399.5C1572.48 392.438 1577.5 384.637 1577.5 372.5V315.5C1577.33 306.667 1573 289 1563 289C1573.5 285.5 1596 272.1 1596 246.5V200C1596.33 179.333 1581.2 138 1518 138H1443ZM1510 384H1443V298H1521.5C1540 298 1543.5 307.5 1543.5 326.5V361.5C1543.5 367.376 1540.98 374.284 1537 378C1531.5 383.138 1522.77 384 1510 384ZM1518 272H1443V175H1525.5C1536.5 174.833 1558.5 179.4 1558.5 199V244C1558 253.5 1555.08 264.142 1540 270C1534.81 272.018 1527.76 272.01 1519.64 272.001L1518.46 272H1518ZM1654 260H1691V421H1654V260ZM1832 138H1795V227H1738V264H1795V371.5V373H1795.02C1795.85 404.629 1823.05 424.5 1858 424.5C1895.6 424.5 1907.67 397.833 1909 384.5H1884C1884 391.5 1880.8 399.5 1858 399.5C1836.36 399.5 1831.63 382.692 1831.91 373H1832V371.5V264H1890V227H1832V138ZM1629 145L1643 243L1679 219L1692 231L1689 210.5L1640.5 156L1701 200.5L1735.5 192L1629 145Z" fill="#231917"/>
</g>
<defs>
<clipPath id="clip0_35_2">
<rect width="1909" height="533" fill="white"/>
</clipPath>
</defs>
</svg>
